<?xml version="1.0" encoding="UTF-8"?>
<svg xmlns="http://www.w3.org/2000/svg" xmlns:xlink="http://www.w3.org/1999/xlink" width="329px" height="83px" viewBox="0 0 329 83" version="1.1">
<g id="surface1">
<path style=" stroke:none;fill-rule:nonzero;fill:rgb(0%,0%,0%);fill-opacity:1;" d="M 67.445312 0.304688 L 261.554688 0.304688 C 276.089844 0.304688 287.875 12.109375 287.875 26.671875 L 287.875 56.328125 C 287.875 70.890625 276.089844 82.695312 261.554688 82.695312 L 67.445312 82.695312 C 52.910156 82.695312 41.125 70.890625 41.125 56.328125 L 41.125 26.671875 C 41.125 12.109375 52.910156 0.304688 67.445312 0.304688 Z M 67.445312 0.304688 "/>
<path style=" stroke:none;fill-rule:nonzero;fill:rgb(100%,100%,100%);fill-opacity:1;" d="M 96 63.738281 L 98.464844 59.460938 L 82.980469 50.507812 L 80.519531 54.785156 C 82.230469 55.777344 82.820312 57.96875 81.835938 59.6875 L 80.648438 61.742188 C 79.65625 63.457031 77.46875 64.046875 75.753906 63.058594 L 73.292969 67.335938 L 88.769531 76.285156 L 91.238281 72.007812 C 89.523438 71.019531 88.929688 68.824219 89.921875 67.105469 L 91.105469 65.050781 C 92.09375 63.335938 94.289062 62.746094 96 63.734375 Z M 96 63.738281 "/>
<path style=" stroke:none;fill-rule:nonzero;fill:rgb(100%,100%,100%);fill-opacity:1;" d="M 99.386719 21.078125 C 101.84375 16.816406 100.382812 11.375 96.136719 8.914062 C 91.890625 6.457031 86.449219 7.914062 84 12.171875 L 81.230469 16.96875 C 83.664062 18.375 84.285156 21.613281 82.550781 23.824219 L 67.445312 40.882812 L 82.835938 49.789062 L 90.03125 28.152344 C 91.074219 25.539062 94.191406 24.460938 96.621094 25.871094 Z M 99.386719 21.078125 "/>
<path style=" stroke:none;fill-rule:nonzero;fill:rgb(100%,100%,100%);fill-opacity:1;" d="M 124.417969 56.242188 C 131.792969 56.242188 135.226562 52.578125 135.226562 48.3125 C 135.226562 38.070312 118.324219 42.332031 118.324219 35.519531 C 118.324219 33.085938 120.355469 31.09375 125.097656 31.09375 C 127.570312 31.09375 130.320312 31.8125 132.753906 33.363281 L 134.066406 30.179688 C 131.757812 28.585938 128.371094 27.703125 125.097656 27.703125 C 117.765625 27.703125 114.417969 31.371094 114.417969 35.679688 C 114.417969 46.039062 131.316406 41.738281 131.316406 48.550781 C 131.316406 50.984375 129.242188 52.859375 124.417969 52.859375 C 120.832031 52.859375 117.285156 51.5 115.214844 49.625 L 113.742188 52.734375 C 115.972656 54.808594 120.15625 56.242188 124.417969 56.242188 Z M 124.417969 56.242188 "/>
<path style=" stroke:none;fill-rule:nonzero;fill:rgb(100%,100%,100%);fill-opacity:1;" d="M 149.015625 52.457031 L 149.015625 43.449219 L 163.007812 43.449219 L 163.007812 40.0625 L 149.015625 40.0625 L 149.015625 31.488281 L 164.722656 31.488281 L 164.722656 28.027344 L 145.035156 28.027344 L 145.035156 55.925781 L 165.28125 55.925781 L 165.28125 52.457031 Z M 149.015625 52.457031 "/>
<path style=" stroke:none;fill-rule:nonzero;fill:rgb(100%,100%,100%);fill-opacity:1;" d="M 195.726562 28.027344 L 195.726562 48.832031 L 178.988281 28.027344 L 175.714844 28.027344 L 175.714844 55.925781 L 179.703125 55.925781 L 179.703125 35.121094 L 196.445312 55.925781 L 199.714844 55.925781 L 199.714844 28.027344 Z M 195.726562 28.027344 "/>
<path style=" stroke:none;fill-rule:nonzero;fill:rgb(100%,100%,100%);fill-opacity:1;" d="M 216.039062 52.457031 L 216.039062 43.449219 L 230.023438 43.449219 L 230.023438 40.0625 L 216.039062 40.0625 L 216.039062 31.488281 L 231.738281 31.488281 L 231.738281 28.027344 L 212.050781 28.027344 L 212.050781 55.925781 L 232.296875 55.925781 L 232.296875 52.457031 Z M 216.039062 52.457031 "/>
<path style=" stroke:none;fill-rule:nonzero;fill:rgb(100%,100%,100%);fill-opacity:1;" d="M 248.277344 55.925781 L 252.226562 55.925781 L 252.226562 31.488281 L 261.789062 31.488281 L 261.789062 28.027344 L 238.714844 28.027344 L 238.714844 31.488281 L 248.277344 31.488281 Z M 248.277344 55.925781 "/>
</g>
</svg>
