<?xml version="1.0" encoding="UTF-8"?>
<svg xmlns="http://www.w3.org/2000/svg" xmlns:xlink="http://www.w3.org/1999/xlink" width="270px" height="68px" viewBox="0 0 272 68" version="1.1">
<g id="surface1">
<path style=" stroke:none;fill-rule:nonzero;fill:rgb(0%,0%,0%);fill-opacity:1;" d="M 55.761719 0 L 216.238281 0 C 228.257812 0 238 9.742188 238 21.761719 L 238 46.238281 C 238 58.257812 228.257812 68 216.238281 68 L 55.761719 68 C 43.742188 68 34 58.257812 34 46.238281 L 34 21.761719 C 34 9.742188 43.742188 0 55.761719 0 Z M 55.761719 0 "/>
<path style=" stroke:none;fill-rule:nonzero;fill:rgb(100%,100%,100%);fill-opacity:1;" d="M 79.367188 52.355469 L 81.40625 48.824219 L 68.605469 41.433594 L 66.570312 44.964844 C 67.984375 45.785156 68.472656 47.59375 67.65625 49.011719 L 66.675781 50.707031 C 65.855469 52.121094 64.046875 52.609375 62.628906 51.792969 L 60.59375 55.324219 L 73.390625 62.710938 L 75.429688 59.179688 C 74.011719 58.363281 73.523438 56.550781 74.34375 55.132812 L 75.320312 53.4375 C 76.136719 52.023438 77.953125 51.535156 79.367188 52.351562 Z M 79.367188 52.355469 "/>
<path style=" stroke:none;fill-rule:nonzero;fill:rgb(100%,100%,100%);fill-opacity:1;" d="M 82.167969 17.144531 C 84.199219 13.628906 82.992188 9.136719 79.480469 7.105469 C 75.96875 5.078125 71.472656 6.28125 69.445312 9.792969 L 67.15625 13.753906 C 69.167969 14.914062 69.683594 17.585938 68.25 19.410156 L 55.761719 33.492188 L 68.484375 40.839844 L 74.433594 22.984375 C 75.296875 20.828125 77.871094 19.9375 79.882812 21.101562 Z M 82.167969 17.144531 "/>
<path style=" stroke:none;fill-rule:nonzero;fill:rgb(100%,100%,100%);fill-opacity:1;" d="M 102.863281 46.167969 C 108.960938 46.167969 111.796875 43.144531 111.796875 39.621094 C 111.796875 31.167969 97.824219 34.6875 97.824219 29.0625 C 97.824219 27.054688 99.503906 25.410156 103.425781 25.410156 C 105.46875 25.410156 107.742188 26.003906 109.753906 27.285156 L 110.839844 24.65625 C 108.929688 23.339844 106.128906 22.613281 103.425781 22.613281 C 97.363281 22.613281 94.59375 25.640625 94.59375 29.195312 C 94.59375 37.746094 108.566406 34.195312 108.566406 39.820312 C 108.566406 41.828125 106.851562 43.375 102.863281 43.375 C 99.898438 43.375 96.964844 42.253906 95.253906 40.707031 L 94.035156 43.273438 C 95.878906 44.984375 99.339844 46.167969 102.863281 46.167969 Z M 102.863281 46.167969 "/>
<path style=" stroke:none;fill-rule:nonzero;fill:rgb(100%,100%,100%);fill-opacity:1;" d="M 123.199219 43.042969 L 123.199219 35.609375 L 134.765625 35.609375 L 134.765625 32.8125 L 123.199219 32.8125 L 123.199219 25.738281 L 136.183594 25.738281 L 136.183594 22.878906 L 119.90625 22.878906 L 119.90625 45.90625 L 136.644531 45.90625 L 136.644531 43.042969 Z M 123.199219 43.042969 "/>
<path style=" stroke:none;fill-rule:nonzero;fill:rgb(100%,100%,100%);fill-opacity:1;" d="M 161.816406 22.878906 L 161.816406 40.050781 L 147.976562 22.878906 L 145.273438 22.878906 L 145.273438 45.90625 L 148.570312 45.90625 L 148.570312 28.734375 L 162.410156 45.90625 L 165.113281 45.90625 L 165.113281 22.878906 Z M 161.816406 22.878906 "/>
<path style=" stroke:none;fill-rule:nonzero;fill:rgb(100%,100%,100%);fill-opacity:1;" d="M 178.609375 43.042969 L 178.609375 35.609375 L 190.171875 35.609375 L 190.171875 32.8125 L 178.609375 32.8125 L 178.609375 25.738281 L 191.589844 25.738281 L 191.589844 22.878906 L 175.3125 22.878906 L 175.3125 45.90625 L 192.050781 45.90625 L 192.050781 43.042969 Z M 178.609375 43.042969 "/>
<path style=" stroke:none;fill-rule:nonzero;fill:rgb(100%,100%,100%);fill-opacity:1;" d="M 205.261719 45.90625 L 208.527344 45.90625 L 208.527344 25.738281 L 216.433594 25.738281 L 216.433594 22.878906 L 197.355469 22.878906 L 197.355469 25.738281 L 205.261719 25.738281 Z M 205.261719 45.90625 "/>
</g>
</svg>
