<svg width="10000" height="1200" viewBox="0 0 10000 1200" fill="none" xmlns="http://www.w3.org/2000/svg">
<path d="M3692 307.427V405.176H3519.48V922.574H3402.26V405.176H3229.74V307.427H3692Z" fill="white"/>
<path d="M2870.18 402.648V553.486H3112.04V643.651H2870.18V827.352H3128.55V922.574H2754.61V307.427H3128.55V402.648H2870.18Z" fill="white"/>
<path d="M2147.61 922.574V307.427H2260.7L2509.16 726.232H2510.81V307.427H2623.9V922.574H2510.81L2262.35 503.768H2260.7V922.574H2147.61Z" fill="white"/>
<path d="M1767.41 402.648V553.486H2009.27V643.651H1767.41V827.352H2025.78V922.574H1651.85V307.427H2025.78V402.648H1767.41Z" fill="white"/>
<path d="M1502.94 429.613C1452.86 404.333 1399.2 391.693 1341.97 391.693C1311.15 391.693 1287.49 398.435 1270.98 411.917C1254.47 425.4 1246.22 443.377 1246.22 465.848C1246.22 505.734 1274.56 533.823 1331.24 550.115C1408.28 572.024 1462.49 598.708 1493.85 630.168C1525.77 661.628 1541.73 702.356 1541.73 752.355C1541.73 810.218 1523.02 854.598 1485.6 885.496C1448.18 915.832 1393.97 931 1322.98 931C1250.89 931 1186.23 912.742 1129 876.227L1157.89 781.848C1210.72 818.364 1266.58 836.621 1325.46 836.621C1357.93 836.621 1382.42 829.599 1398.93 815.555C1415.99 800.948 1424.52 780.444 1424.52 754.04C1424.52 729.884 1417.64 710.783 1403.88 696.739C1390.67 682.694 1366.46 670.335 1331.24 659.661C1260.8 638.876 1209.62 612.753 1177.7 581.293C1146.33 549.834 1130.65 511.352 1130.65 465.848C1130.65 415.288 1148.81 374.84 1185.13 344.504C1222 314.168 1273.46 299 1339.49 299C1407.73 299 1470.19 312.202 1526.87 338.605L1502.94 429.613Z" fill="white"/>
<path d="M0 165.027C0 73.8852 74.7497 0 166.958 0H788.042C880.25 0 955 73.8853 955 165.027V1042.97C955 1134.11 880.25 1208 788.042 1208H166.958C74.7497 1208 0 1134.11 0 1042.97V165.027Z" fill="black"/>
<path d="M665.494 923.116L703.689 860.299L463.714 728.846L425.518 791.663C452.074 806.21 461.204 838.412 445.87 863.605L427.47 893.757C412.136 918.95 378.192 927.612 351.637 913.065L313.441 975.883L553.417 1107.34L591.612 1044.52C565.057 1029.97 555.926 997.703 571.26 972.51L589.591 942.358C604.925 917.165 638.938 908.503 665.494 923.05V923.116Z" fill="#DAFD60"/>
<path d="M717.982 296.74C756.038 234.254 733.456 154.311 667.589 118.207C601.723 82.1039 517.457 103.528 479.401 166.014L436.536 236.436C474.243 257.066 483.931 304.609 457.027 337.075L222.834 587.587L461.415 718.247L572.938 400.62C589.178 362.268 637.41 346.465 675.117 367.162L717.982 296.74Z" fill="white"/>
</svg>
