<svg width="100" height="50" viewBox="0 0 3000 500" fill="none" xmlns="http://www.w3.org/2000/svg">
<path d="M2222 191.12V250.512H2121.44V564.88H2053.11V250.512H1952.54V191.12H2222Z" fill="white"/>
<path d="M1742.95 248.976V340.624H1883.94V395.408H1742.95V507.024H1893.56V564.88H1675.59V191.12H1893.56V248.976H1742.95Z" fill="white"/>
<path d="M1321.76 564.88V191.12H1387.68L1532.51 445.584H1533.47V191.12H1599.39V564.88H1533.47L1388.64 310.416H1387.68V564.88H1321.76Z" fill="white"/>
<path d="M1100.14 248.976V340.624H1241.12V395.408H1100.14V507.024H1250.74V564.88H1032.77V191.12H1250.74V248.976H1100.14Z" fill="white"/>
<path d="M945.971 265.36C916.78 250 885.503 242.32 852.142 242.32C834.179 242.32 820.385 246.416 810.761 254.608C801.138 262.8 796.326 273.723 796.326 287.376C796.326 311.611 812.847 328.677 845.887 338.576C890.796 351.888 922.393 368.101 940.678 387.216C959.283 406.331 968.586 431.077 968.586 461.456C968.586 496.613 957.679 523.579 935.866 542.352C914.053 560.784 882.456 570 841.075 570C799.053 570 761.361 558.907 728 536.72L744.841 479.376C775.636 501.563 808.195 512.656 842.519 512.656C861.445 512.656 875.72 508.389 885.343 499.856C895.287 490.981 900.259 478.523 900.259 462.48C900.259 447.803 896.25 436.197 888.23 427.664C880.531 419.131 866.417 411.621 845.887 405.136C804.827 392.507 774.994 376.635 756.389 357.52C738.105 338.405 728.962 315.024 728.962 287.376C728.962 256.656 739.548 232.08 760.72 213.648C782.212 195.216 812.205 186 850.699 186C890.476 186 926.884 194.021 959.925 210.064L945.971 265.36Z" fill="white"/>
<path d="M0 104.645C0 46.8511 45.9456 0 102.622 0H484.378C541.054 0 587 46.8511 587 104.645V661.355C587 719.149 541.054 766 484.378 766H102.622C45.9456 766 0 719.149 0 661.355V104.645Z" fill="black"/>
<path d="M409.052 585.353L432.529 545.521L285.026 462.165L261.549 501.998C277.871 511.223 283.484 531.642 274.059 547.617L262.748 566.737C253.323 582.712 232.459 588.205 216.137 578.98L192.66 618.813L340.163 702.168L363.64 662.335C347.317 653.111 341.705 632.65 351.13 616.675L362.398 597.555C371.823 581.58 392.73 576.087 409.052 585.311V585.353Z" fill="#DAFD60"/>
<path d="M441.315 188.165C464.706 148.542 450.826 97.8492 410.34 74.9559C369.855 52.0626 318.06 65.6476 294.668 105.271L268.321 149.925C291.498 163.007 297.453 193.154 280.916 213.742L136.967 372.593L283.613 455.445L352.162 254.036C362.144 229.717 391.79 219.696 414.967 232.819L441.315 188.165Z" fill="white"/>
</svg>
