<?xml version="1.0" encoding="UTF-8"?>
<svg xmlns="http://www.w3.org/2000/svg" xmlns:xlink="http://www.w3.org/1999/xlink" width="208px" height="68px" viewBox="0 0 207 68" version="1.1">
<g id="surface1">
<path style=" stroke:none;fill-rule:nonzero;fill:rgb(100%,100%,100%);fill-opacity:1;" d="M 207 17.304688 L 207 22.808594 L 197.328125 22.808594 L 197.328125 51.933594 L 190.753906 51.933594 L 190.753906 22.808594 L 181.082031 22.808594 L 181.082031 17.304688 Z M 207 17.304688 "/>
<path style=" stroke:none;fill-rule:nonzero;fill:rgb(100%,100%,100%);fill-opacity:1;" d="M 160.921875 22.664062 L 160.921875 31.15625 L 174.484375 31.15625 L 174.484375 36.230469 L 160.921875 36.230469 L 160.921875 46.574219 L 175.410156 46.574219 L 175.410156 51.933594 L 154.441406 51.933594 L 154.441406 17.304688 L 175.410156 17.304688 L 175.410156 22.664062 Z M 160.921875 22.664062 "/>
<path style=" stroke:none;fill-rule:nonzero;fill:rgb(100%,100%,100%);fill-opacity:1;" d="M 120.410156 51.933594 L 120.410156 17.304688 L 126.75 17.304688 L 140.679688 40.878906 L 140.773438 40.878906 L 140.773438 17.304688 L 147.113281 17.304688 L 147.113281 51.933594 L 140.773438 51.933594 L 126.84375 28.359375 L 126.75 28.359375 L 126.75 51.933594 Z M 120.410156 51.933594 "/>
<path style=" stroke:none;fill-rule:nonzero;fill:rgb(100%,100%,100%);fill-opacity:1;" d="M 99.09375 22.664062 L 99.09375 31.15625 L 112.652344 31.15625 L 112.652344 36.230469 L 99.09375 36.230469 L 99.09375 46.574219 L 113.578125 46.574219 L 113.578125 51.933594 L 92.613281 51.933594 L 92.613281 17.304688 L 113.578125 17.304688 L 113.578125 22.664062 Z M 99.09375 22.664062 "/>
<path style=" stroke:none;fill-rule:nonzero;fill:rgb(100%,100%,100%);fill-opacity:1;" d="M 84.265625 24.183594 C 81.457031 22.761719 78.449219 22.050781 75.242188 22.050781 C 73.511719 22.050781 72.1875 22.429688 71.261719 23.1875 C 70.335938 23.945312 69.871094 24.957031 69.871094 26.222656 C 69.871094 28.46875 71.460938 30.050781 74.640625 30.964844 C 78.957031 32.199219 81.996094 33.703125 83.757812 35.472656 C 85.546875 37.242188 86.441406 39.535156 86.441406 42.351562 C 86.441406 45.609375 85.390625 48.105469 83.292969 49.847656 C 81.195312 51.554688 78.15625 52.40625 74.175781 52.40625 C 70.132812 52.40625 66.507812 51.378906 63.300781 49.324219 L 64.917969 44.011719 C 67.882812 46.066406 71.011719 47.09375 74.316406 47.09375 C 76.136719 47.09375 77.507812 46.699219 78.433594 45.910156 C 79.390625 45.085938 79.867188 43.933594 79.867188 42.445312 C 79.867188 41.085938 79.484375 40.011719 78.710938 39.21875 C 77.972656 38.429688 76.613281 37.734375 74.640625 37.132812 C 70.691406 35.964844 67.820312 34.492188 66.03125 32.722656 C 64.269531 30.949219 63.390625 28.785156 63.390625 26.222656 C 63.390625 23.378906 64.410156 21.101562 66.445312 19.394531 C 68.515625 17.683594 71.398438 16.832031 75.101562 16.832031 C 78.925781 16.832031 82.429688 17.574219 85.605469 19.058594 Z M 84.265625 24.183594 "/>
<path style=" stroke:none;fill-rule:nonzero;fill:rgb(0%,0%,0%);fill-opacity:1;" d="M 0 9.289062 C 0 4.160156 4.191406 0 9.359375 0 L 44.183594 0 C 49.351562 0 53.542969 4.160156 53.542969 9.289062 L 53.542969 58.710938 C 53.542969 63.839844 49.351562 68 44.183594 68 L 9.359375 68 C 4.191406 68 0 63.839844 0 58.710938 Z M 0 9.289062 "/>
<path style=" stroke:none;fill-rule:nonzero;fill:rgb(85.490196%,99.215686%,37.647059%);fill-opacity:1;" d="M 37.3125 51.964844 L 39.453125 48.425781 L 26 41.027344 L 23.859375 44.5625 C 25.347656 45.382812 25.859375 47.195312 25 48.613281 L 23.96875 50.3125 C 23.105469 51.730469 21.203125 52.214844 19.714844 51.398438 L 17.574219 54.933594 L 31.027344 62.332031 L 33.171875 58.796875 C 31.679688 57.976562 31.167969 56.160156 32.027344 54.742188 L 33.058594 53.046875 C 33.917969 51.628906 35.824219 51.140625 37.3125 51.960938 Z M 37.3125 51.964844 "/>
<path style=" stroke:none;fill-rule:nonzero;fill:rgb(100%,100%,100%);fill-opacity:1;" d="M 40.253906 16.703125 C 42.390625 13.1875 41.121094 8.6875 37.429688 6.652344 C 33.738281 4.621094 29.011719 5.828125 26.878906 9.34375 L 24.476562 13.308594 C 26.589844 14.46875 27.132812 17.148438 25.625 18.972656 L 12.492188 33.074219 L 25.871094 40.429688 L 32.121094 22.550781 C 33.035156 20.390625 35.738281 19.503906 37.851562 20.667969 Z M 40.253906 16.703125 "/>
</g>
</svg>
  